<svg xmlns="http://www.w3.org/2000/svg" xmlns:xlink="http://www.w3.org/1999/xlink" xmlns:lucid="lucid" width="780.2" height="677.6"><g transform="translate(-249 -116)" lucid:page-tab-id="0_0"><path d="M0 0h1360v1760H0z" fill="#fff"/><path d="M542.08 259c0-6.63 5.37-12 12-12h171.2c6.63 0 12 5.37 12 12v27.2c0 6.63-5.37 12-12 12h-171.2c-6.63 0-12-5.37-12-12z" stroke="#666" stroke-width="2" fill="#fff"/><use xlink:href="#a" transform="matrix(1,0,0,1,547.0799999999999,252.00000000000003) translate(18.135802469135797 24.555555555555557)"/><path d="M542.08 371c0-6.63 5.37-12 12-12h171.2c6.63 0 12 5.37 12 12v27.2c0 6.63-5.37 12-12 12h-171.2c-6.63 0-12-5.37-12-12z" stroke="#666" stroke-width="2" fill="#fff"/><use xlink:href="#b" transform="matrix(1,0,0,1,547.0799999999999,364) translate(16.086419753086403 24.555555555555557)"/><path d="M542.08 482c0-6.63 5.37-12 12-12h171.2c6.63 0 12 5.37 12 12v27.2c0 6.63-5.37 12-12 12h-171.2c-6.63 0-12-5.37-12-12z" stroke="#666" stroke-width="2" fill="#fff"/><use xlink:href="#c" transform="matrix(1,0,0,1,547.0799999999999,475) translate(23.5432098765432 24.555555555555557)"/><path d="M269 625c0-6.63 5.37-12 12-12h171.2c6.63 0 12 5.37 12 12v27.2c0 6.63-5.37 12-12 12H281c-6.63 0-12-5.37-12-12z" stroke="#666" stroke-width="2" fill="#fff"/><use xlink:href="#d" transform="matrix(1,0,0,1,274,617.9999999999999) translate(10.654320987654302 24.555555555555557)"/><path d="M814 625.4c0-6.63 5.37-12 12-12h171.2c6.63 0 12 5.37 12 12v27.2c0 6.63-5.37 12-12 12H826c-6.63 0-12-5.37-12-12z" stroke="#666" stroke-width="2" fill="#fff"/><use xlink:href="#d" transform="matrix(1,0,0,1,819,618.4) translate(10.654320987654302 24.555555555555557)"/><path d="M542.08 625c0-6.63 5.37-12 12-12h171.2c6.63 0 12 5.37 12 12v27.2c0 6.63-5.37 12-12 12h-171.2c-6.63 0-12-5.37-12-12z" stroke="#666" stroke-width="2" fill="#fff"/><use xlink:href="#e" transform="matrix(1,0,0,1,547.0799999999999,617.9999999999999) translate(76.72839506172839 24.555555555555557)"/><path d="M269 734c0-6.63 5.37-12 12-12h171.2c6.63 0 12 5.37 12 12v27.2c0 6.63-5.37 12-12 12H281c-6.63 0-12-5.37-12-12z" stroke="#666" stroke-width="2" fill="#fff"/><use xlink:href="#e" transform="matrix(1,0,0,1,274,726.9999999999999) translate(76.72839506172839 24.555555555555557)"/><path d="M814 734.4c0-6.63 5.37-12 12-12h171.2c6.63 0 12 5.37 12 12v27.2c0 6.63-5.37 12-12 12H826c-6.63 0-12-5.37-12-12z" stroke="#666" stroke-width="2" fill="#fff"/><use xlink:href="#e" transform="matrix(1,0,0,1,819,727.4) translate(76.72839506172839 24.555555555555557)"/><path d="M639.68 299.7v41.92" fill="none"/><path d="M639.68 299.7v4.66m0 4.65v9.33m0 4.66v9.3m0 4.66v4.66" stroke="#000" fill="none"/><path d="M640.18 299.7h-1v-.5h1z"/><path d="M639.68 356.38l-4.64-14.26h9.28z" stroke="#000"/><path d="M639.68 411.7v40.92" fill="none"/><path d="M639.68 411.7v4.55m0 4.54v9.08m0 4.55v9.1m0 4.54v4.55" stroke="#000" fill="none"/><path d="M640.18 411.7h-1v-.5h1z"/><path d="M639.68 467.38l-4.64-14.26h9.28z" stroke="#000"/><path d="M639.68 522.7v72.92" fill="none"/><path d="M639.68 522.7v4.86m0 4.86v9.72m0 4.87v9.73m0 4.86v9.7m0 4.87v9.72m0 4.86v4.86" stroke="#000" fill="none"/><path d="M640.18 522.7h-1v-.5h1z"/><path d="M639.68 610.38l-4.64-14.26h9.28z" stroke="#000"/><path d="M639.68 522.7v44.4H366.6v28.52" fill="none"/><path d="M639.68 522.7v5m0 5.03v10.03m0 5v10.04m0 5.02v4.28h-5.74m-5.02 0H618.9m-5.02 0h-10.03m-5.02 0H588.8m-5 0h-10.04m-5 0H558.7m-5.02 0h-10.02m-5.02 0h-10.03m-5 0h-10.04m-5.03 0h-10.02m-5.02 0H483.5m-5 0h-10.04m-5.02 0h-10.02m-5.02 0h-10.03m-5 0h-10.04m-5.02 0h-10m-5.03 0h-10.03m-5 0H378.2m-5.02 0h-6.58v3.44m0 5.02v10.03m0 5v5.02" stroke="#000" fill="none"/><path d="M640.18 522.7h-1v-.5h1z"/><path d="M366.6 610.38l-4.64-14.26h9.28z" stroke="#000"/><path d="M639.68 522.7v44.6H911.6v28.72" fill="none"/><path d="M639.68 522.7v5m0 5v10m0 5.02v10m0 5v4.58h5.43m5.02 0h10m5 0h10m5.02 0h10m5 0h10.02m5 0h10m5 0h10.02m5 0h10m5 0h10.02m5 0h10m5 0h10.02m5 0h10m5 0h10.02m5 0h10m5 0h10.02m5 0h10m5 0h10.02m5 0h10m5 0h6.32v3.7m0 5v10m0 5v5.02" stroke="#000" fill="none"/><path d="M640.18 522.7h-1v-.5h1z"/><path d="M911.6 610.78l-4.64-14.26h9.28z" stroke="#000"/><path d="M366.6 665.7v38.92" fill="none"/><path d="M366.6 665.7v4.32m0 4.33V683m0 4.32v8.65m0 4.32v4.32" stroke="#000" fill="none"/><path d="M367.1 665.7h-1v-.5h1z"/><path d="M366.6 719.38l-4.64-14.26h9.28z" stroke="#000"/><path d="M911.6 666.1v38.92" fill="none"/><path d="M911.6 666.1v4.32m0 4.33v8.65m0 4.32v8.65m0 4.32V705" stroke="#000" fill="none"/><path d="M912.1 666.1h-1v-.5h1z"/><path d="M911.6 719.78l-4.64-14.26h9.28z" stroke="#000"/><path d="M541.08 148c0-6.63 5.37-12 12-12h171.2c6.63 0 12 5.37 12 12v27.2c0 6.63-5.37 12-12 12h-171.2c-6.63 0-12-5.37-12-12z" stroke="#0c7cba" stroke-width="3" fill="#fff"/><use xlink:href="#f" transform="matrix(1,0,0,1,546.0799999999999,141) translate(44.24999999999999 25)"/><path d="M638.68 189.2l.04 40.42" fill="none"/><path d="M638.68 189.2v4.5m0 4.48l.02 8.98m0 4.5v8.97m.02 4.5v4.5" stroke="#000" fill="none"/><path d="M639.18 189.2h-1v-.5h1z"/><path d="M638.74 244.38l-4.65-14.26h9.26z" stroke="#000"/><defs><path fill="#333" d="M197 0v-115H63V0H30v-248h33v105h134v-105h34V0h-34" id="g"/><path fill="#333" d="M127-220V0H93v-220H8v-28h204v28h-85" id="h"/><path fill="#333" d="M240 0l2-218c-23 76-54 145-80 218h-23L58-218 59 0H30v-248h44l77 211c21-75 51-140 76-211h43V0h-30" id="i"/><path fill="#333" d="M30 0v-248h33v221h125V0H30" id="j"/><path fill="#333" d="M59-47c-2 24 18 29 38 22v24C64 9 27 4 27-40v-127H5v-23h24l9-43h21v43h35v23H59v120" id="k"/><path fill="#333" d="M210-169c-67 3-38 105-44 169h-31v-121c0-29-5-50-35-48C34-165 62-65 56 0H25l-1-190h30c1 10-1 24 2 32 10-44 99-50 107 0 11-21 27-35 58-36 85-2 47 119 55 194h-31v-121c0-29-5-49-35-48" id="l"/><path fill="#333" d="M24 0v-261h32V0H24" id="m"/><path fill="#333" d="M30 0v-248h187v28H63v79h144v27H63v87h162V0H30" id="n"/><path fill="#333" d="M100-194c63 0 86 42 84 106H49c0 40 14 67 53 68 26 1 43-12 49-29l28 8c-11 28-37 45-77 45C44 4 14-33 15-96c1-61 26-98 85-98zm52 81c6-60-76-77-97-28-3 7-6 17-6 28h103" id="o"/><path fill="#333" d="M117-194c89-4 53 116 60 194h-32v-121c0-31-8-49-39-48C34-167 62-67 57 0H25l-1-190h30c1 10-1 24 2 32 11-22 29-35 61-36" id="p"/><g id="a"><use transform="matrix(0.04938271604938272,0,0,0.04938271604938272,0,0)" xlink:href="#g"/><use transform="matrix(0.04938271604938272,0,0,0.04938271604938272,12.790123456790125,0)" xlink:href="#h"/><use transform="matrix(0.04938271604938272,0,0,0.04938271604938272,23.60493827160494,0)" xlink:href="#i"/><use transform="matrix(0.04938271604938272,0,0,0.04938271604938272,38.370370370370374,0)" xlink:href="#j"/><use transform="matrix(0.04938271604938272,0,0,0.04938271604938272,48.24691358024692,0)" xlink:href="#g"/><use transform="matrix(0.04938271604938272,0,0,0.04938271604938272,61.037037037037045,0)" xlink:href="#k"/><use transform="matrix(0.04938271604938272,0,0,0.04938271604938272,65.97530864197532,0)" xlink:href="#l"/><use transform="matrix(0.04938271604938272,0,0,0.04938271604938272,80.74074074074075,0)" xlink:href="#m"/><use transform="matrix(0.04938271604938272,0,0,0.04938271604938272,84.64197530864199,0)" xlink:href="#n"/><use transform="matrix(0.04938271604938272,0,0,0.04938271604938272,96.49382716049384,0)" xlink:href="#m"/><use transform="matrix(0.04938271604938272,0,0,0.04938271604938272,100.39506172839508,0)" xlink:href="#o"/><use transform="matrix(0.04938271604938272,0,0,0.04938271604938272,110.27160493827161,0)" xlink:href="#l"/><use transform="matrix(0.04938271604938272,0,0,0.04938271604938272,125.03703703703705,0)" xlink:href="#o"/><use transform="matrix(0.04938271604938272,0,0,0.04938271604938272,134.9135802469136,0)" xlink:href="#p"/><use transform="matrix(0.04938271604938272,0,0,0.04938271604938272,144.79012345679013,0)" xlink:href="#k"/></g><path fill="#333" d="M160-131c35 5 61 23 61 61C221 17 115-2 30 0v-248c76 3 177-17 177 60 0 33-19 50-47 57zm-97-11c50-1 110 9 110-42 0-47-63-36-110-37v79zm0 115c55-2 124 14 124-45 0-56-70-42-124-44v89" id="q"/><path fill="#333" d="M100-194c62-1 85 37 85 99 1 63-27 99-86 99S16-35 15-95c0-66 28-99 85-99zM99-20c44 1 53-31 53-75 0-43-8-75-51-75s-53 32-53 75 10 74 51 75" id="r"/><path fill="#333" d="M85-194c31 0 48 13 60 33l-1-100h32l1 261h-30c-2-10 0-23-3-31C134-8 116 4 85 4 32 4 16-35 15-94c0-66 23-100 70-100zm9 24c-40 0-46 34-46 75 0 40 6 74 45 74 42 0 51-32 51-76 0-42-9-74-50-73" id="s"/><path fill="#333" d="M179-190L93 31C79 59 56 82 12 73V49c39 6 53-20 64-50L1-190h34L92-34l54-156h33" id="t"/><g id="b"><use transform="matrix(0.04938271604938272,0,0,0.04938271604938272,0,0)" xlink:href="#g"/><use transform="matrix(0.04938271604938272,0,0,0.04938271604938272,12.790123456790125,0)" xlink:href="#h"/><use transform="matrix(0.04938271604938272,0,0,0.04938271604938272,23.60493827160494,0)" xlink:href="#i"/><use transform="matrix(0.04938271604938272,0,0,0.04938271604938272,38.370370370370374,0)" xlink:href="#j"/><use transform="matrix(0.04938271604938272,0,0,0.04938271604938272,48.24691358024692,0)" xlink:href="#q"/><use transform="matrix(0.04938271604938272,0,0,0.04938271604938272,60.09876543209877,0)" xlink:href="#r"/><use transform="matrix(0.04938271604938272,0,0,0.04938271604938272,69.97530864197532,0)" xlink:href="#s"/><use transform="matrix(0.04938271604938272,0,0,0.04938271604938272,79.85185185185186,0)" xlink:href="#t"/><use transform="matrix(0.04938271604938272,0,0,0.04938271604938272,88.74074074074075,0)" xlink:href="#n"/><use transform="matrix(0.04938271604938272,0,0,0.04938271604938272,100.5925925925926,0)" xlink:href="#m"/><use transform="matrix(0.04938271604938272,0,0,0.04938271604938272,104.49382716049384,0)" xlink:href="#o"/><use transform="matrix(0.04938271604938272,0,0,0.04938271604938272,114.37037037037038,0)" xlink:href="#l"/><use transform="matrix(0.04938271604938272,0,0,0.04938271604938272,129.13580246913583,0)" xlink:href="#o"/><use transform="matrix(0.04938271604938272,0,0,0.04938271604938272,139.01234567901236,0)" xlink:href="#p"/><use transform="matrix(0.04938271604938272,0,0,0.04938271604938272,148.8888888888889,0)" xlink:href="#k"/></g><path fill="#333" d="M30-248c118-7 216 8 213 122C240-48 200 0 122 0H30v-248zM63-27c89 8 146-16 146-99s-60-101-146-95v194" id="u"/><path fill="#333" d="M24-231v-30h32v30H24zM24 0v-190h32V0H24" id="v"/><path fill="#333" d="M108 0H70L1-190h34L89-25l56-165h34" id="w"/><g id="c"><use transform="matrix(0.04938271604938272,0,0,0.04938271604938272,0,0)" xlink:href="#g"/><use transform="matrix(0.04938271604938272,0,0,0.04938271604938272,12.790123456790125,0)" xlink:href="#h"/><use transform="matrix(0.04938271604938272,0,0,0.04938271604938272,23.60493827160494,0)" xlink:href="#i"/><use transform="matrix(0.04938271604938272,0,0,0.04938271604938272,38.370370370370374,0)" xlink:href="#j"/><use transform="matrix(0.04938271604938272,0,0,0.04938271604938272,48.24691358024692,0)" xlink:href="#u"/><use transform="matrix(0.04938271604938272,0,0,0.04938271604938272,61.037037037037045,0)" xlink:href="#v"/><use transform="matrix(0.04938271604938272,0,0,0.04938271604938272,64.93827160493828,0)" xlink:href="#w"/><use transform="matrix(0.04938271604938272,0,0,0.04938271604938272,73.82716049382717,0)" xlink:href="#n"/><use transform="matrix(0.04938271604938272,0,0,0.04938271604938272,85.67901234567901,0)" xlink:href="#m"/><use transform="matrix(0.04938271604938272,0,0,0.04938271604938272,89.58024691358025,0)" xlink:href="#o"/><use transform="matrix(0.04938271604938272,0,0,0.04938271604938272,99.4567901234568,0)" xlink:href="#l"/><use transform="matrix(0.04938271604938272,0,0,0.04938271604938272,114.22222222222223,0)" xlink:href="#o"/><use transform="matrix(0.04938271604938272,0,0,0.04938271604938272,124.09876543209877,0)" xlink:href="#p"/><use transform="matrix(0.04938271604938272,0,0,0.04938271604938272,133.97530864197532,0)" xlink:href="#k"/></g><path fill="#333" d="M84 4C-5 8 30-112 23-190h32v120c0 31 7 50 39 49 72-2 45-101 50-169h31l1 190h-30c-1-10 1-25-2-33-11 22-28 36-60 37" id="x"/><g id="d"><use transform="matrix(0.04938271604938272,0,0,0.04938271604938272,0,0)" xlink:href="#g"/><use transform="matrix(0.04938271604938272,0,0,0.04938271604938272,12.790123456790125,0)" xlink:href="#h"/><use transform="matrix(0.04938271604938272,0,0,0.04938271604938272,23.60493827160494,0)" xlink:href="#i"/><use transform="matrix(0.04938271604938272,0,0,0.04938271604938272,38.370370370370374,0)" xlink:href="#j"/><use transform="matrix(0.04938271604938272,0,0,0.04938271604938272,48.24691358024692,0)" xlink:href="#q"/><use transform="matrix(0.04938271604938272,0,0,0.04938271604938272,60.09876543209877,0)" xlink:href="#x"/><use transform="matrix(0.04938271604938272,0,0,0.04938271604938272,69.97530864197532,0)" xlink:href="#k"/><use transform="matrix(0.04938271604938272,0,0,0.04938271604938272,74.9135802469136,0)" xlink:href="#k"/><use transform="matrix(0.04938271604938272,0,0,0.04938271604938272,79.85185185185188,0)" xlink:href="#r"/><use transform="matrix(0.04938271604938272,0,0,0.04938271604938272,89.72839506172842,0)" xlink:href="#p"/><use transform="matrix(0.04938271604938272,0,0,0.04938271604938272,99.60493827160496,0)" xlink:href="#n"/><use transform="matrix(0.04938271604938272,0,0,0.04938271604938272,111.45679012345683,0)" xlink:href="#m"/><use transform="matrix(0.04938271604938272,0,0,0.04938271604938272,115.35802469135805,0)" xlink:href="#o"/><use transform="matrix(0.04938271604938272,0,0,0.04938271604938272,125.2345679012346,0)" xlink:href="#l"/><use transform="matrix(0.04938271604938272,0,0,0.04938271604938272,140.00000000000003,0)" xlink:href="#o"/><use transform="matrix(0.04938271604938272,0,0,0.04938271604938272,149.87654320987656,0)" xlink:href="#p"/><use transform="matrix(0.04938271604938272,0,0,0.04938271604938272,159.75308641975312,0)" xlink:href="#k"/></g><path fill="#333" d="M141 0L90-78 38 0H4l68-98-65-92h35l48 74 47-74h35l-64 92 68 98h-35" id="y"/><g id="e"><use transform="matrix(0.04938271604938272,0,0,0.04938271604938272,0,0)" xlink:href="#h"/><use transform="matrix(0.04938271604938272,0,0,0.04938271604938272,8.839506172839506,0)" xlink:href="#o"/><use transform="matrix(0.04938271604938272,0,0,0.04938271604938272,18.71604938271605,0)" xlink:href="#y"/><use transform="matrix(0.04938271604938272,0,0,0.04938271604938272,27.60493827160494,0)" xlink:href="#k"/></g><path fill="#0c7cba" d="M24-248c120-7 223 5 221 122C244-46 201 0 124 0H24v-248zM76-40c74 7 117-18 117-86 0-67-45-88-117-82v168" id="z"/><path fill="#0c7cba" d="M110-194c64 0 96 36 96 99 0 64-35 99-97 99-61 0-95-36-95-99 0-62 34-99 96-99zm-1 164c35 0 45-28 45-65 0-40-10-65-43-65-34 0-45 26-45 65 0 36 10 65 43 65" id="A"/><path fill="#0c7cba" d="M190-63c-7 42-38 67-86 67-59 0-84-38-90-98-12-110 154-137 174-36l-49 2c-2-19-15-32-35-32-30 0-35 28-38 64-6 74 65 87 74 30" id="B"/><path fill="#0c7cba" d="M85 4C-2 5 27-109 22-190h50c7 57-23 150 33 157 60-5 35-97 40-157h50l1 190h-47c-2-12 1-28-3-38-12 25-28 42-61 42" id="C"/><path fill="#0c7cba" d="M220-157c-53 9-28 100-34 157h-49v-107c1-27-5-49-29-50C55-147 81-57 75 0H25l-1-190h47c2 12-1 28 3 38 10-53 101-56 108 0 13-22 24-43 59-42 82 1 51 116 57 194h-49v-107c-1-25-5-48-29-50" id="D"/><path fill="#0c7cba" d="M185-48c-13 30-37 53-82 52C43 2 14-33 14-96s30-98 90-98c62 0 83 45 84 108H66c0 31 8 55 39 56 18 0 30-7 34-22zm-45-69c5-46-57-63-70-21-2 6-4 13-4 21h74" id="E"/><path fill="#0c7cba" d="M135-194c87-1 58 113 63 194h-50c-7-57 23-157-34-157-59 0-34 97-39 157H25l-1-190h47c2 12-1 28 3 38 12-26 28-41 61-42" id="F"/><path fill="#0c7cba" d="M115-3C79 11 28 4 28-45v-112H4v-33h27l15-45h31v45h36v33H77v99c-1 23 16 31 38 25v30" id="G"/><g id="f"><use transform="matrix(0.05555555555555555,0,0,0.05555555555555555,0,0)" xlink:href="#z"/><use transform="matrix(0.05555555555555555,0,0,0.05555555555555555,14.388888888888888,0)" xlink:href="#A"/><use transform="matrix(0.05555555555555555,0,0,0.05555555555555555,26.555555555555554,0)" xlink:href="#B"/><use transform="matrix(0.05555555555555555,0,0,0.05555555555555555,37.666666666666664,0)" xlink:href="#C"/><use transform="matrix(0.05555555555555555,0,0,0.05555555555555555,49.83333333333333,0)" xlink:href="#D"/><use transform="matrix(0.05555555555555555,0,0,0.05555555555555555,67.61111111111111,0)" xlink:href="#E"/><use transform="matrix(0.05555555555555555,0,0,0.05555555555555555,78.72222222222223,0)" xlink:href="#F"/><use transform="matrix(0.05555555555555555,0,0,0.05555555555555555,90.8888888888889,0)" xlink:href="#G"/></g></defs></g></svg>