<svg xmlns="http://www.w3.org/2000/svg" xmlns:xlink="http://www.w3.org/1999/xlink" xmlns:lucid="lucid" width="1223" height="566.6"><g transform="translate(-60 -100)" lucid:page-tab-id="0_0"><path d="M0 0h1360v1760H0z" fill="#fff"/><path d="M80 227c0-6.63 5.37-12 12-12h316c6.63 0 12 5.37 12 12v276c0 6.63-5.37 12-12 12H92c-6.63 0-12-5.37-12-12z" stroke="#999" stroke-width="2" fill="#fff"/><use xlink:href="#a" transform="matrix(1,0,0,1,85,220) translate(0 31.99609375)"/><use xlink:href="#b" transform="matrix(1,0,0,1,85,220) translate(0 61.99609375)"/><use xlink:href="#c" transform="matrix(1,0,0,1,85,220) translate(24.00390625 61.99609375)"/><use xlink:href="#d" transform="matrix(1,0,0,1,85,220) translate(0 91.99609375)"/><use xlink:href="#e" transform="matrix(1,0,0,1,85,220) translate(48.0078125 91.99609375)"/><use xlink:href="#f" transform="matrix(1,0,0,1,85,220) translate(0 121.99609375)"/><use xlink:href="#g" transform="matrix(1,0,0,1,85,220) translate(72.01171875 121.99609375)"/><use xlink:href="#h" transform="matrix(1,0,0,1,85,220) translate(180.029296875 121.99609375)"/><use xlink:href="#i" transform="matrix(1,0,0,1,85,220) translate(204.033203125 121.99609375)"/><use xlink:href="#f" transform="matrix(1,0,0,1,85,220) translate(0 151.99609375)"/><use xlink:href="#j" transform="matrix(1,0,0,1,85,220) translate(72.01171875 151.99609375)"/><use xlink:href="#f" transform="matrix(1,0,0,1,85,220) translate(0 181.99609375)"/><use xlink:href="#g" transform="matrix(1,0,0,1,85,220) translate(72.01171875 181.99609375)"/><use xlink:href="#k" transform="matrix(1,0,0,1,85,220) translate(180.029296875 181.99609375)"/><use xlink:href="#i" transform="matrix(1,0,0,1,85,220) translate(204.033203125 181.99609375)"/><use xlink:href="#l" transform="matrix(1,0,0,1,85,220) translate(0 211.99609375)"/><use xlink:href="#m" transform="matrix(1,0,0,1,85,220) translate(48.0078125 211.99609375)"/><use xlink:href="#b" transform="matrix(1,0,0,1,85,220) translate(0 241.99609375)"/><use xlink:href="#n" transform="matrix(1,0,0,1,85,220) translate(24.00390625 241.99609375)"/><use xlink:href="#a" transform="matrix(1,0,0,1,85,220) translate(0 271.99609375)"/><use xlink:href="#o" transform="matrix(1,0,0,1,85,220) translate(0 301.99609375)"/><use xlink:href="#p" transform="matrix(1,0,0,1,85,220) translate(165 315.99609375)"/><path d="M783.08 132c0-6.63 5.37-12 12-12h184c6.63 0 12 5.37 12 12v27.2c0 6.63-5.37 12-12 12h-184c-6.63 0-12-5.37-12-12z" stroke="#ba2b65" stroke-width="2" fill="#fff"/><use xlink:href="#q" transform="matrix(1,0,0,1,788.0799999999999,125) translate(14.777777777777786 25)"/><path d="M783.08 244c0-6.63 5.37-12 12-12h184c6.63 0 12 5.37 12 12v27.2c0 6.63-5.37 12-12 12h-184c-6.63 0-12-5.37-12-12z" stroke="#00624f" stroke-width="2" fill="#fff"/><use xlink:href="#r" transform="matrix(1,0,0,1,788.0799999999999,237.00000000000003) translate(12.472222222222229 25)"/><path d="M783.08 355c0-6.63 5.37-12 12-12h184c6.63 0 12 5.37 12 12v27.2c0 6.63-5.37 12-12 12h-184c-6.63 0-12-5.37-12-12z" stroke="#834187" stroke-width="2" fill="#fff"/><use xlink:href="#s" transform="matrix(1,0,0,1,788.0799999999999,348) translate(20.86111111111113 25)"/><path d="M510 498c0-6.63 5.37-12 12-12h184c6.63 0 12 5.37 12 12v27.2c0 6.63-5.37 12-12 12H522c-6.63 0-12-5.37-12-12z" stroke="#0c7cba" stroke-width="2" fill="#fff"/><use xlink:href="#t" transform="matrix(1,0,0,1,515,491) translate(6.361111111111114 25)"/><path d="M1055 498.4c0-6.63 5.37-12 12-12h184c6.63 0 12 5.37 12 12v27.2c0 6.63-5.37 12-12 12h-184c-6.63 0-12-5.37-12-12z" stroke="#0c7cba" stroke-width="2" fill="#fff"/><use xlink:href="#t" transform="matrix(1,0,0,1,1060,491.4000000000001) translate(6.361111111111114 25)"/><path d="M783.08 498c0-6.63 5.37-12 12-12h184c6.63 0 12 5.37 12 12v27.2c0 6.63-5.37 12-12 12h-184c-6.63 0-12-5.37-12-12z" stroke="#ce6925" stroke-width="2" fill="#fff"/><use xlink:href="#u" transform="matrix(1,0,0,1,788.0799999999999,491) translate(80.69444444444444 25)"/><path d="M510 607c0-6.63 5.37-12 12-12h184c6.63 0 12 5.37 12 12v27.2c0 6.63-5.37 12-12 12H522c-6.63 0-12-5.37-12-12z" stroke="#ce6925" stroke-width="2" fill="#fff"/><use xlink:href="#u" transform="matrix(1,0,0,1,515,600) translate(80.69444444444444 25)"/><path d="M1055 607.4c0-6.63 5.37-12 12-12h184c6.63 0 12 5.37 12 12v27.2c0 6.63-5.37 12-12 12h-184c-6.63 0-12-5.37-12-12z" stroke="#ce6925" stroke-width="2" fill="#fff"/><use xlink:href="#u" transform="matrix(1,0,0,1,1060,600.4000000000001) translate(80.69444444444444 25)"/><path d="M887.08 172.7v41.92" fill="none"/><path d="M887.08 172.7v4.66m0 4.65v9.33m0 4.66v9.3m0 4.66v4.66" stroke="#000" fill="none"/><path d="M887.58 172.7h-1v-.5h1z"/><path d="M887.08 229.38l-4.64-14.26h9.28z" stroke="#000"/><path d="M887.08 284.7v40.92" fill="none"/><path d="M887.08 284.7v4.55m0 4.54v9.08m0 4.55v9.1m0 4.54v4.55" stroke="#000" fill="none"/><path d="M887.58 284.7h-1v-.5h1z"/><path d="M887.08 340.38l-4.64-14.26h9.28z" stroke="#000"/><path d="M887.08 395.7v72.92" fill="none"/><path d="M887.08 395.7v4.86m0 4.86v9.72m0 4.87v9.73m0 4.86v9.7m0 4.87v9.72m0 4.86v4.86" stroke="#000" fill="none"/><path d="M887.58 395.7h-1v-.5h1z"/><path d="M887.08 483.38l-4.64-14.26h9.28z" stroke="#000"/><path d="M887.08 395.7v44.4H614v28.52" fill="none"/><path d="M887.08 395.7v5m0 5.03v10.03m0 5v10.04m0 5.02v4.28h-5.74m-5.02 0H866.3m-5.02 0h-10.03m-5.02 0H836.2m-5 0h-10.04m-5 0H806.1m-5.02 0h-10.02m-5.02 0h-10.03m-5 0h-10.04m-5.03 0h-10.02m-5.02 0H730.9m-5 0h-10.04m-5.02 0h-10.02m-5.02 0h-10.03m-5 0h-10.04m-5.02 0h-10m-5.03 0h-10.03m-5 0H625.6m-5.02 0H614v3.44m0 5.02v10.03m0 5v5.02" stroke="#000" fill="none"/><path d="M887.58 395.7h-1v-.5h1z"/><path d="M614 483.38l-4.64-14.26h9.28z" stroke="#000"/><path d="M887.08 395.7v44.6H1159v28.72" fill="none"/><path d="M887.08 395.7v5m0 5v10m0 5.02v10m0 5v4.58h5.43m5.02 0h10m5 0h10m5.02 0h10m5 0h10.02m5 0h10m5 0h10.02m5 0h10m5 0h10.02m5 0h10m5 0h10.02m5 0h10m5 0h10.02m5 0h10m5 0h10.02m5 0h10m5 0h10.02m5 0h10m5 0h6.32v3.7m0 5v10m0 5v5.02" stroke="#000" fill="none"/><path d="M887.58 395.7h-1v-.5h1z"/><path d="M1159 483.78l-4.64-14.26h9.28z" stroke="#000"/><path d="M614 538.7v38.92" fill="none"/><path d="M614 538.7v4.32m0 4.33V556m0 4.32v8.65m0 4.32v4.32" stroke="#000" fill="none"/><path d="M614.5 538.7h-1v-.5h1z"/><path d="M614 592.38l-4.64-14.26h9.28z" stroke="#000"/><path d="M1159 539.1v38.92" fill="none"/><path d="M1159 539.1v4.32m0 4.33v8.65m0 4.32v8.65m0 4.32V578" stroke="#000" fill="none"/><path d="M1159.5 539.1h-1v-.5h1z"/><path d="M1159 592.78l-4.64-14.26h9.28z" stroke="#000"/><defs><path fill="#ba2b65" d="M116-571v-205l995-418v154L253-674l858 367v153" id="v"/><path fill="#ba2b65" d="M909-793c2-119-62-175-179-170-208 9-312 151-348 336L260 0H80l288-1484h181c-40 197-71 402-123 587h3c84-115 190-205 379-205 182 0 290 76 289 259 0 38-4 79-13 122L944 0H763l135-695c7-39 11-71 11-98" id="w"/><path fill="#ba2b65" d="M574 16c-199 5-309-85-269-285l131-671H268l27-142h170l113-282h120l-55 282h432l-27 142H616c-43 233-105 457-132 696-16 144 198 111 324 99 46-6 96-14 136-22L918-30C819-5 700 13 574 16" id="x"/><path fill="#ba2b65" d="M1000-783c14-86 16-180-76-180-43 0-83 29-120 85s-67 140-88 251L594 0H426c49-261 107-518 150-783 14-86 14-191-77-180-103 13-137 116-173 209-17 43-28 93-39 147L169 0H0c67-361 144-713 204-1082h149c-6 55-18 122-28 175h2c54-95 112-192 254-195 127-2 153 72 158 196 61-99 122-196 274-196 124 0 168 64 168 192 0 67-10 125-22 189L1019 0H851c49-261 106-518 149-783" id="y"/><path fill="#ba2b65" d="M659-142h380L1011 0H29l28-142h422l233-1200H423l27-142h469" id="z"/><path fill="#ba2b65" d="M116-154v-153l858-367-858-366v-154l995 418v205" id="A"/><g id="a"><use transform="matrix(0.009765625,0,0,0.009765625,0,0)" xlink:href="#v"/><use transform="matrix(0.009765625,0,0,0.009765625,12.001953125,0)" xlink:href="#w"/><use transform="matrix(0.009765625,0,0,0.009765625,24.00390625,0)" xlink:href="#x"/><use transform="matrix(0.009765625,0,0,0.009765625,36.005859375,0)" xlink:href="#y"/><use transform="matrix(0.009765625,0,0,0.009765625,48.0078125,0)" xlink:href="#z"/><use transform="matrix(0.009765625,0,0,0.009765625,60.009765625,0)" xlink:href="#A"/></g><path fill="#00624f" d="M116-571v-205l995-418v154L253-674l858 367v153" id="B"/><path fill="#00624f" d="M809-1104c212 0 310 122 306 343-4 250-95 524-208 640C818-30 715 20 589 20c-161 0-261-59-300-184-11 55-26 116-41 164H74c18-68 35-148 49-223l245-1261h180c-39 193-73 391-116 580h4c79-124 190-200 373-200zM348-430c-24 189 33 326 217 317 240-12 292-213 339-427 14-65 21-126 22-196 0-150-52-229-193-229-257 0-320 212-371 441-7 34-11 65-14 94" id="C"/><path fill="#00624f" d="M724-1102c292 0 423 159 388 460-35 307-154 537-400 628-65 24-136 34-212 34-254-2-388-131-388-387 0-255 97-480 226-595 103-92 231-140 386-140zM381-747C294-559 211-98 524-113c294-14 359-254 399-525 28-194-32-337-222-331-174 5-260 94-320 222" id="D"/><path fill="#00624f" d="M772 0c2-57 14-121 24-174h-5C708-49 608 26 420 26 203 26 113-90 112-311c0-65 8-138 24-221 74-377 241-566 502-566 165 0 259 55 298 184 37-190 73-380 110-570h180C1133-988 1028-504 944 0H772zm109-648c26-189-33-326-219-317-242 11-291 213-338 427-15 68-22 130-23 201 1 149 51 224 193 224 258 0 321-215 372-441 8-34 12-65 15-94" id="E"/><path fill="#00624f" d="M9 279c104 15 163 3 243-53 63-44 133-143 181-237L171-1082h192c62 299 135 587 188 896 174-300 351-597 525-896h190L600 0c-97 160-186 316-352 396-73 35-176 36-265 18" id="F"/><path fill="#00624f" d="M116-154v-153l858-367-858-366v-154l995 418v205" id="G"/><g id="c"><use transform="matrix(0.009765625,0,0,0.009765625,0,0)" xlink:href="#B"/><use transform="matrix(0.009765625,0,0,0.009765625,12.001953125,0)" xlink:href="#C"/><use transform="matrix(0.009765625,0,0,0.009765625,24.00390625,0)" xlink:href="#D"/><use transform="matrix(0.009765625,0,0,0.009765625,36.005859375,0)" xlink:href="#E"/><use transform="matrix(0.009765625,0,0,0.009765625,48.0078125,0)" xlink:href="#F"/><use transform="matrix(0.009765625,0,0,0.009765625,60.009765625,0)" xlink:href="#G"/></g><path fill="#834187" d="M116-571v-205l995-418v154L253-674l858 367v153" id="H"/><path fill="#834187" d="M772 0c2-57 14-121 24-174h-5C708-49 608 26 420 26 203 26 113-90 112-311c0-65 8-138 24-221 74-377 241-566 502-566 165 0 259 55 298 184 37-190 73-380 110-570h180C1133-988 1028-504 944 0H772zm109-648c26-189-33-326-219-317-242 11-291 213-338 427-15 68-22 130-23 201 1 149 51 224 193 224 258 0 321-215 372-441 8-34 12-65 15-94" id="I"/><path fill="#834187" d="M668-142h380L1020 0H38l28-142h422l155-798H324l27-142h499zm23-1150l37-192h200l-37 192H691" id="J"/><path fill="#834187" d="M610 0H397L174-1082h202l131 704c10 72 16 162 23 237 161-331 356-627 533-941h201" id="K"/><path fill="#834187" d="M116-154v-153l858-367-858-366v-154l995 418v205" id="L"/><g id="e"><use transform="matrix(0.009765625,0,0,0.009765625,0,0)" xlink:href="#H"/><use transform="matrix(0.009765625,0,0,0.009765625,12.001953125,0)" xlink:href="#I"/><use transform="matrix(0.009765625,0,0,0.009765625,24.00390625,0)" xlink:href="#J"/><use transform="matrix(0.009765625,0,0,0.009765625,36.005859375,0)" xlink:href="#K"/><use transform="matrix(0.009765625,0,0,0.009765625,48.0078125,0)" xlink:href="#L"/></g><path fill="#0c7cba" d="M116-571v-205l995-418v154L253-674l858 367v153" id="M"/><path fill="#0c7cba" d="M809-1104c212 0 310 122 306 343-4 250-95 524-208 640C818-30 715 20 589 20c-161 0-261-59-300-184-11 55-26 116-41 164H74c18-68 35-148 49-223l245-1261h180c-39 193-73 391-116 580h4c79-124 190-200 373-200zM348-430c-24 189 33 326 217 317 240-12 292-213 339-427 14-65 21-126 22-196 0-150-52-229-193-229-257 0-320 212-371 441-7 34-11 65-14 94" id="N"/><path fill="#0c7cba" d="M419 20c-186 0-282-64-284-243 0-40 5-86 15-138l140-721h180c-47 251-101 497-144 752-25 145 40 219 181 211 211-12 308-150 344-336l122-627h181C1087-721 1010-369 950 0H780c6-58 18-129 28-185h-3C720-71 616 20 419 20" id="O"/><path fill="#0c7cba" d="M574 16c-199 5-309-85-269-285l131-671H268l27-142h170l113-282h120l-55 282h432l-27 142H616c-43 233-105 457-132 696-16 144 198 111 324 99 46-6 96-14 136-22L918-30C819-5 700 13 574 16" id="P"/><path fill="#0c7cba" d="M724-1102c292 0 423 159 388 460-35 307-154 537-400 628-65 24-136 34-212 34-254-2-388-131-388-387 0-255 97-480 226-595 103-92 231-140 386-140zM381-747C294-559 211-98 524-113c294-14 359-254 399-525 28-194-32-337-222-331-174 5-260 94-320 222" id="Q"/><path fill="#0c7cba" d="M815-1102c202-2 311 102 279 314-40 267-101 525-150 788H763l135-695c7-39 11-71 11-98 2-119-62-175-179-170-208 9-312 151-348 336L260 0H80c67-361 144-713 204-1082h170c-6 58-17 130-28 185h3c86-116 194-203 386-205" id="R"/><path fill="#0c7cba" d="M116-154v-153l858-367-858-366v-154l995 418v205" id="S"/><g id="g"><use transform="matrix(0.009765625,0,0,0.009765625,0,0)" xlink:href="#M"/><use transform="matrix(0.009765625,0,0,0.009765625,12.001953125,0)" xlink:href="#N"/><use transform="matrix(0.009765625,0,0,0.009765625,24.00390625,0)" xlink:href="#O"/><use transform="matrix(0.009765625,0,0,0.009765625,36.005859375,0)" xlink:href="#P"/><use transform="matrix(0.009765625,0,0,0.009765625,48.0078125,0)" xlink:href="#P"/><use transform="matrix(0.009765625,0,0,0.009765625,60.009765625,0)" xlink:href="#Q"/><use transform="matrix(0.009765625,0,0,0.009765625,72.01171875,0)" xlink:href="#R"/><use transform="matrix(0.009765625,0,0,0.009765625,84.013671875,0)" xlink:href="#S"/></g><path fill="#ce6925" d="M319-464l31-160h560l-31 160H319" id="T"/><use transform="matrix(0.009765625,0,0,0.009765625,0,0)" xlink:href="#T" id="h"/><path fill="#0c7cba" d="M5 20l1113-1504h178L187 20H5" id="U"/><g id="i"><use transform="matrix(0.009765625,0,0,0.009765625,0,0)" xlink:href="#M"/><use transform="matrix(0.009765625,0,0,0.009765625,12.001953125,0)" xlink:href="#U"/><use transform="matrix(0.009765625,0,0,0.009765625,24.00390625,0)" xlink:href="#N"/><use transform="matrix(0.009765625,0,0,0.009765625,36.005859375,0)" xlink:href="#O"/><use transform="matrix(0.009765625,0,0,0.009765625,48.0078125,0)" xlink:href="#P"/><use transform="matrix(0.009765625,0,0,0.009765625,60.009765625,0)" xlink:href="#P"/><use transform="matrix(0.009765625,0,0,0.009765625,72.01171875,0)" xlink:href="#Q"/><use transform="matrix(0.009765625,0,0,0.009765625,84.013671875,0)" xlink:href="#R"/><use transform="matrix(0.009765625,0,0,0.009765625,96.015625,0)" xlink:href="#S"/></g><path fill="#ce6925" d="M778-1370c265 0 387 149 381 421-8 347-108 641-279 816C787-38 668 16 502 20 192 27 89-213 128-534c36-292 118-539 270-692 93-94 212-144 380-144zM332-675c-50 247-71 554 201 548 198-4 278-133 341-289 53-133 101-344 104-531 3-173-58-280-228-277-204 3-283 125-346 284-28 70-51 159-72 265zm166 120l49-249h235l-49 249H498" id="V"/><use transform="matrix(0.009765625,0,0,0.009765625,0,0)" xlink:href="#V" id="j"/><path fill="#ce6925" d="M687-608v428H540v-428H116v-146h424v-428h147v428h424v146H687" id="W"/><use transform="matrix(0.009765625,0,0,0.009765625,0,0)" xlink:href="#W" id="k"/><path fill="#834187" d="M5 20l1113-1504h178L187 20H5" id="X"/><g id="m"><use transform="matrix(0.009765625,0,0,0.009765625,0,0)" xlink:href="#H"/><use transform="matrix(0.009765625,0,0,0.009765625,12.001953125,0)" xlink:href="#X"/><use transform="matrix(0.009765625,0,0,0.009765625,24.00390625,0)" xlink:href="#I"/><use transform="matrix(0.009765625,0,0,0.009765625,36.005859375,0)" xlink:href="#J"/><use transform="matrix(0.009765625,0,0,0.009765625,48.0078125,0)" xlink:href="#K"/><use transform="matrix(0.009765625,0,0,0.009765625,60.009765625,0)" xlink:href="#L"/></g><path fill="#00624f" d="M5 20l1113-1504h178L187 20H5" id="Y"/><g id="n"><use transform="matrix(0.009765625,0,0,0.009765625,0,0)" xlink:href="#B"/><use transform="matrix(0.009765625,0,0,0.009765625,12.001953125,0)" xlink:href="#Y"/><use transform="matrix(0.009765625,0,0,0.009765625,24.00390625,0)" xlink:href="#C"/><use transform="matrix(0.009765625,0,0,0.009765625,36.005859375,0)" xlink:href="#D"/><use transform="matrix(0.009765625,0,0,0.009765625,48.0078125,0)" xlink:href="#E"/><use transform="matrix(0.009765625,0,0,0.009765625,60.009765625,0)" xlink:href="#F"/><use transform="matrix(0.009765625,0,0,0.009765625,72.01171875,0)" xlink:href="#G"/></g><path fill="#ba2b65" d="M197 0v-115H63V0H30v-248h33v105h134v-105h34V0h-34" id="Z"/><path fill="#ba2b65" d="M127-220V0H93v-220H8v-28h204v28h-85" id="aa"/><path fill="#ba2b65" d="M240 0l2-218c-23 76-54 145-80 218h-23L58-218 59 0H30v-248h44l77 211c21-75 51-140 76-211h43V0h-30" id="ab"/><path fill="#ba2b65" d="M30 0v-248h33v221h125V0H30" id="ac"/><path fill="#ba2b65" d="M59-47c-2 24 18 29 38 22v24C64 9 27 4 27-40v-127H5v-23h24l9-43h21v43h35v23H59v120" id="ad"/><path fill="#ba2b65" d="M210-169c-67 3-38 105-44 169h-31v-121c0-29-5-50-35-48C34-165 62-65 56 0H25l-1-190h30c1 10-1 24 2 32 10-44 99-50 107 0 11-21 27-35 58-36 85-2 47 119 55 194h-31v-121c0-29-5-49-35-48" id="ae"/><path fill="#ba2b65" d="M24 0v-261h32V0H24" id="af"/><path fill="#ba2b65" d="M30 0v-248h187v28H63v79h144v27H63v87h162V0H30" id="ag"/><path fill="#ba2b65" d="M100-194c63 0 86 42 84 106H49c0 40 14 67 53 68 26 1 43-12 49-29l28 8c-11 28-37 45-77 45C44 4 14-33 15-96c1-61 26-98 85-98zm52 81c6-60-76-77-97-28-3 7-6 17-6 28h103" id="ah"/><path fill="#ba2b65" d="M117-194c89-4 53 116 60 194h-32v-121c0-31-8-49-39-48C34-167 62-67 57 0H25l-1-190h30c1 10-1 24 2 32 11-22 29-35 61-36" id="ai"/><g id="q"><use transform="matrix(0.05555555555555555,0,0,0.05555555555555555,0,0)" xlink:href="#Z"/><use transform="matrix(0.05555555555555555,0,0,0.05555555555555555,14.388888888888888,0)" xlink:href="#aa"/><use transform="matrix(0.05555555555555555,0,0,0.05555555555555555,26.555555555555554,0)" xlink:href="#ab"/><use transform="matrix(0.05555555555555555,0,0,0.05555555555555555,43.166666666666664,0)" xlink:href="#ac"/><use transform="matrix(0.05555555555555555,0,0,0.05555555555555555,54.27777777777777,0)" xlink:href="#Z"/><use transform="matrix(0.05555555555555555,0,0,0.05555555555555555,68.66666666666666,0)" xlink:href="#ad"/><use transform="matrix(0.05555555555555555,0,0,0.05555555555555555,74.22222222222221,0)" xlink:href="#ae"/><use transform="matrix(0.05555555555555555,0,0,0.05555555555555555,90.83333333333333,0)" xlink:href="#af"/><use transform="matrix(0.05555555555555555,0,0,0.05555555555555555,95.22222222222221,0)" xlink:href="#ag"/><use transform="matrix(0.05555555555555555,0,0,0.05555555555555555,108.55555555555554,0)" xlink:href="#af"/><use transform="matrix(0.05555555555555555,0,0,0.05555555555555555,112.94444444444443,0)" xlink:href="#ah"/><use transform="matrix(0.05555555555555555,0,0,0.05555555555555555,124.05555555555554,0)" xlink:href="#ae"/><use transform="matrix(0.05555555555555555,0,0,0.05555555555555555,140.66666666666666,0)" xlink:href="#ah"/><use transform="matrix(0.05555555555555555,0,0,0.05555555555555555,151.77777777777777,0)" xlink:href="#ai"/><use transform="matrix(0.05555555555555555,0,0,0.05555555555555555,162.88888888888889,0)" xlink:href="#ad"/></g><path fill="#00624f" d="M197 0v-115H63V0H30v-248h33v105h134v-105h34V0h-34" id="aj"/><path fill="#00624f" d="M127-220V0H93v-220H8v-28h204v28h-85" id="ak"/><path fill="#00624f" d="M240 0l2-218c-23 76-54 145-80 218h-23L58-218 59 0H30v-248h44l77 211c21-75 51-140 76-211h43V0h-30" id="al"/><path fill="#00624f" d="M30 0v-248h33v221h125V0H30" id="am"/><path fill="#00624f" d="M160-131c35 5 61 23 61 61C221 17 115-2 30 0v-248c76 3 177-17 177 60 0 33-19 50-47 57zm-97-11c50-1 110 9 110-42 0-47-63-36-110-37v79zm0 115c55-2 124 14 124-45 0-56-70-42-124-44v89" id="an"/><path fill="#00624f" d="M100-194c62-1 85 37 85 99 1 63-27 99-86 99S16-35 15-95c0-66 28-99 85-99zM99-20c44 1 53-31 53-75 0-43-8-75-51-75s-53 32-53 75 10 74 51 75" id="ao"/><path fill="#00624f" d="M85-194c31 0 48 13 60 33l-1-100h32l1 261h-30c-2-10 0-23-3-31C134-8 116 4 85 4 32 4 16-35 15-94c0-66 23-100 70-100zm9 24c-40 0-46 34-46 75 0 40 6 74 45 74 42 0 51-32 51-76 0-42-9-74-50-73" id="ap"/><path fill="#00624f" d="M179-190L93 31C79 59 56 82 12 73V49c39 6 53-20 64-50L1-190h34L92-34l54-156h33" id="aq"/><path fill="#00624f" d="M30 0v-248h187v28H63v79h144v27H63v87h162V0H30" id="ar"/><path fill="#00624f" d="M24 0v-261h32V0H24" id="as"/><path fill="#00624f" d="M100-194c63 0 86 42 84 106H49c0 40 14 67 53 68 26 1 43-12 49-29l28 8c-11 28-37 45-77 45C44 4 14-33 15-96c1-61 26-98 85-98zm52 81c6-60-76-77-97-28-3 7-6 17-6 28h103" id="at"/><path fill="#00624f" d="M210-169c-67 3-38 105-44 169h-31v-121c0-29-5-50-35-48C34-165 62-65 56 0H25l-1-190h30c1 10-1 24 2 32 10-44 99-50 107 0 11-21 27-35 58-36 85-2 47 119 55 194h-31v-121c0-29-5-49-35-48" id="au"/><path fill="#00624f" d="M117-194c89-4 53 116 60 194h-32v-121c0-31-8-49-39-48C34-167 62-67 57 0H25l-1-190h30c1 10-1 24 2 32 11-22 29-35 61-36" id="av"/><path fill="#00624f" d="M59-47c-2 24 18 29 38 22v24C64 9 27 4 27-40v-127H5v-23h24l9-43h21v43h35v23H59v120" id="aw"/><g id="r"><use transform="matrix(0.05555555555555555,0,0,0.05555555555555555,0,0)" xlink:href="#aj"/><use transform="matrix(0.05555555555555555,0,0,0.05555555555555555,14.388888888888888,0)" xlink:href="#ak"/><use transform="matrix(0.05555555555555555,0,0,0.05555555555555555,26.555555555555554,0)" xlink:href="#al"/><use transform="matrix(0.05555555555555555,0,0,0.05555555555555555,43.166666666666664,0)" xlink:href="#am"/><use transform="matrix(0.05555555555555555,0,0,0.05555555555555555,54.27777777777777,0)" xlink:href="#an"/><use transform="matrix(0.05555555555555555,0,0,0.05555555555555555,67.6111111111111,0)" xlink:href="#ao"/><use transform="matrix(0.05555555555555555,0,0,0.05555555555555555,78.72222222222221,0)" xlink:href="#ap"/><use transform="matrix(0.05555555555555555,0,0,0.05555555555555555,89.83333333333333,0)" xlink:href="#aq"/><use transform="matrix(0.05555555555555555,0,0,0.05555555555555555,99.83333333333333,0)" xlink:href="#ar"/><use transform="matrix(0.05555555555555555,0,0,0.05555555555555555,113.16666666666666,0)" xlink:href="#as"/><use transform="matrix(0.05555555555555555,0,0,0.05555555555555555,117.55555555555554,0)" xlink:href="#at"/><use transform="matrix(0.05555555555555555,0,0,0.05555555555555555,128.66666666666666,0)" xlink:href="#au"/><use transform="matrix(0.05555555555555555,0,0,0.05555555555555555,145.27777777777777,0)" xlink:href="#at"/><use transform="matrix(0.05555555555555555,0,0,0.05555555555555555,156.38888888888889,0)" xlink:href="#av"/><use transform="matrix(0.05555555555555555,0,0,0.05555555555555555,167.5,0)" xlink:href="#aw"/></g><path fill="#834187" d="M197 0v-115H63V0H30v-248h33v105h134v-105h34V0h-34" id="ax"/><path fill="#834187" d="M127-220V0H93v-220H8v-28h204v28h-85" id="ay"/><path fill="#834187" d="M240 0l2-218c-23 76-54 145-80 218h-23L58-218 59 0H30v-248h44l77 211c21-75 51-140 76-211h43V0h-30" id="az"/><path fill="#834187" d="M30 0v-248h33v221h125V0H30" id="aA"/><path fill="#834187" d="M30-248c118-7 216 8 213 122C240-48 200 0 122 0H30v-248zM63-27c89 8 146-16 146-99s-60-101-146-95v194" id="aB"/><path fill="#834187" d="M24-231v-30h32v30H24zM24 0v-190h32V0H24" id="aC"/><path fill="#834187" d="M108 0H70L1-190h34L89-25l56-165h34" id="aD"/><path fill="#834187" d="M30 0v-248h187v28H63v79h144v27H63v87h162V0H30" id="aE"/><path fill="#834187" d="M24 0v-261h32V0H24" id="aF"/><path fill="#834187" d="M100-194c63 0 86 42 84 106H49c0 40 14 67 53 68 26 1 43-12 49-29l28 8c-11 28-37 45-77 45C44 4 14-33 15-96c1-61 26-98 85-98zm52 81c6-60-76-77-97-28-3 7-6 17-6 28h103" id="aG"/><path fill="#834187" d="M210-169c-67 3-38 105-44 169h-31v-121c0-29-5-50-35-48C34-165 62-65 56 0H25l-1-190h30c1 10-1 24 2 32 10-44 99-50 107 0 11-21 27-35 58-36 85-2 47 119 55 194h-31v-121c0-29-5-49-35-48" id="aH"/><path fill="#834187" d="M117-194c89-4 53 116 60 194h-32v-121c0-31-8-49-39-48C34-167 62-67 57 0H25l-1-190h30c1 10-1 24 2 32 11-22 29-35 61-36" id="aI"/><path fill="#834187" d="M59-47c-2 24 18 29 38 22v24C64 9 27 4 27-40v-127H5v-23h24l9-43h21v43h35v23H59v120" id="aJ"/><g id="s"><use transform="matrix(0.05555555555555555,0,0,0.05555555555555555,0,0)" xlink:href="#ax"/><use transform="matrix(0.05555555555555555,0,0,0.05555555555555555,14.388888888888888,0)" xlink:href="#ay"/><use transform="matrix(0.05555555555555555,0,0,0.05555555555555555,26.555555555555554,0)" xlink:href="#az"/><use transform="matrix(0.05555555555555555,0,0,0.05555555555555555,43.166666666666664,0)" xlink:href="#aA"/><use transform="matrix(0.05555555555555555,0,0,0.05555555555555555,54.27777777777777,0)" xlink:href="#aB"/><use transform="matrix(0.05555555555555555,0,0,0.05555555555555555,68.66666666666666,0)" xlink:href="#aC"/><use transform="matrix(0.05555555555555555,0,0,0.05555555555555555,73.05555555555554,0)" xlink:href="#aD"/><use transform="matrix(0.05555555555555555,0,0,0.05555555555555555,83.05555555555554,0)" xlink:href="#aE"/><use transform="matrix(0.05555555555555555,0,0,0.05555555555555555,96.38888888888887,0)" xlink:href="#aF"/><use transform="matrix(0.05555555555555555,0,0,0.05555555555555555,100.77777777777776,0)" xlink:href="#aG"/><use transform="matrix(0.05555555555555555,0,0,0.05555555555555555,111.88888888888887,0)" xlink:href="#aH"/><use transform="matrix(0.05555555555555555,0,0,0.05555555555555555,128.49999999999997,0)" xlink:href="#aG"/><use transform="matrix(0.05555555555555555,0,0,0.05555555555555555,139.6111111111111,0)" xlink:href="#aI"/><use transform="matrix(0.05555555555555555,0,0,0.05555555555555555,150.7222222222222,0)" xlink:href="#aJ"/></g><path fill="#0c7cba" d="M197 0v-115H63V0H30v-248h33v105h134v-105h34V0h-34" id="aK"/><path fill="#0c7cba" d="M127-220V0H93v-220H8v-28h204v28h-85" id="aL"/><path fill="#0c7cba" d="M240 0l2-218c-23 76-54 145-80 218h-23L58-218 59 0H30v-248h44l77 211c21-75 51-140 76-211h43V0h-30" id="aM"/><path fill="#0c7cba" d="M30 0v-248h33v221h125V0H30" id="aN"/><path fill="#0c7cba" d="M160-131c35 5 61 23 61 61C221 17 115-2 30 0v-248c76 3 177-17 177 60 0 33-19 50-47 57zm-97-11c50-1 110 9 110-42 0-47-63-36-110-37v79zm0 115c55-2 124 14 124-45 0-56-70-42-124-44v89" id="aO"/><path fill="#0c7cba" d="M84 4C-5 8 30-112 23-190h32v120c0 31 7 50 39 49 72-2 45-101 50-169h31l1 190h-30c-1-10 1-25-2-33-11 22-28 36-60 37" id="aP"/><path fill="#0c7cba" d="M59-47c-2 24 18 29 38 22v24C64 9 27 4 27-40v-127H5v-23h24l9-43h21v43h35v23H59v120" id="aQ"/><path fill="#0c7cba" d="M100-194c62-1 85 37 85 99 1 63-27 99-86 99S16-35 15-95c0-66 28-99 85-99zM99-20c44 1 53-31 53-75 0-43-8-75-51-75s-53 32-53 75 10 74 51 75" id="aR"/><path fill="#0c7cba" d="M117-194c89-4 53 116 60 194h-32v-121c0-31-8-49-39-48C34-167 62-67 57 0H25l-1-190h30c1 10-1 24 2 32 11-22 29-35 61-36" id="aS"/><path fill="#0c7cba" d="M30 0v-248h187v28H63v79h144v27H63v87h162V0H30" id="aT"/><path fill="#0c7cba" d="M24 0v-261h32V0H24" id="aU"/><path fill="#0c7cba" d="M100-194c63 0 86 42 84 106H49c0 40 14 67 53 68 26 1 43-12 49-29l28 8c-11 28-37 45-77 45C44 4 14-33 15-96c1-61 26-98 85-98zm52 81c6-60-76-77-97-28-3 7-6 17-6 28h103" id="aV"/><path fill="#0c7cba" d="M210-169c-67 3-38 105-44 169h-31v-121c0-29-5-50-35-48C34-165 62-65 56 0H25l-1-190h30c1 10-1 24 2 32 10-44 99-50 107 0 11-21 27-35 58-36 85-2 47 119 55 194h-31v-121c0-29-5-49-35-48" id="aW"/><g id="t"><use transform="matrix(0.05555555555555555,0,0,0.05555555555555555,0,0)" xlink:href="#aK"/><use transform="matrix(0.05555555555555555,0,0,0.05555555555555555,14.388888888888888,0)" xlink:href="#aL"/><use transform="matrix(0.05555555555555555,0,0,0.05555555555555555,26.555555555555554,0)" xlink:href="#aM"/><use transform="matrix(0.05555555555555555,0,0,0.05555555555555555,43.166666666666664,0)" xlink:href="#aN"/><use transform="matrix(0.05555555555555555,0,0,0.05555555555555555,54.27777777777777,0)" xlink:href="#aO"/><use transform="matrix(0.05555555555555555,0,0,0.05555555555555555,67.6111111111111,0)" xlink:href="#aP"/><use transform="matrix(0.05555555555555555,0,0,0.05555555555555555,78.72222222222221,0)" xlink:href="#aQ"/><use transform="matrix(0.05555555555555555,0,0,0.05555555555555555,84.27777777777777,0)" xlink:href="#aQ"/><use transform="matrix(0.05555555555555555,0,0,0.05555555555555555,89.83333333333333,0)" xlink:href="#aR"/><use transform="matrix(0.05555555555555555,0,0,0.05555555555555555,100.94444444444444,0)" xlink:href="#aS"/><use transform="matrix(0.05555555555555555,0,0,0.05555555555555555,112.05555555555556,0)" xlink:href="#aT"/><use transform="matrix(0.05555555555555555,0,0,0.05555555555555555,125.38888888888889,0)" xlink:href="#aU"/><use transform="matrix(0.05555555555555555,0,0,0.05555555555555555,129.77777777777777,0)" xlink:href="#aV"/><use transform="matrix(0.05555555555555555,0,0,0.05555555555555555,140.88888888888889,0)" xlink:href="#aW"/><use transform="matrix(0.05555555555555555,0,0,0.05555555555555555,157.5,0)" xlink:href="#aV"/><use transform="matrix(0.05555555555555555,0,0,0.05555555555555555,168.61111111111111,0)" xlink:href="#aS"/><use transform="matrix(0.05555555555555555,0,0,0.05555555555555555,179.72222222222223,0)" xlink:href="#aQ"/></g><path fill="#ce6925" d="M127-220V0H93v-220H8v-28h204v28h-85" id="aX"/><path fill="#ce6925" d="M100-194c63 0 86 42 84 106H49c0 40 14 67 53 68 26 1 43-12 49-29l28 8c-11 28-37 45-77 45C44 4 14-33 15-96c1-61 26-98 85-98zm52 81c6-60-76-77-97-28-3 7-6 17-6 28h103" id="aY"/><path fill="#ce6925" d="M141 0L90-78 38 0H4l68-98-65-92h35l48 74 47-74h35l-64 92 68 98h-35" id="aZ"/><path fill="#ce6925" d="M59-47c-2 24 18 29 38 22v24C64 9 27 4 27-40v-127H5v-23h24l9-43h21v43h35v23H59v120" id="ba"/><g id="u"><use transform="matrix(0.05555555555555555,0,0,0.05555555555555555,0,0)" xlink:href="#aX"/><use transform="matrix(0.05555555555555555,0,0,0.05555555555555555,9.944444444444443,0)" xlink:href="#aY"/><use transform="matrix(0.05555555555555555,0,0,0.05555555555555555,21.055555555555554,0)" xlink:href="#aZ"/><use transform="matrix(0.05555555555555555,0,0,0.05555555555555555,31.055555555555554,0)" xlink:href="#ba"/></g></defs></g></svg>